<?xml version="1.0" encoding="UTF-8"?><svg id="Ebene_1" xmlns="http://www.w3.org/2000/svg" viewBox="0 0 3000 3000"><defs><style>.cls-1{fill:#051c59;fill-rule:evenodd;}</style></defs><polygon class="cls-1" points="969.03 1099 1499.71 568.32 1590.04 951.09 969.03 1099 969.03 1099"/><polygon class="cls-1" points="2054.1 1167.88 1524.55 1698.56 1434.22 1316.92 2054.1 1167.88 2054.1 1167.88"/><polygon class="cls-1" points="1546 590.9 2076.68 1121.58 1695.04 1211.91 1546 590.9 1546 590.9"/><polygon class="cls-1" points="1477.13 1675.98 947.57 1146.42 1329.21 1056.09 1477.13 1675.98 1477.13 1675.98"/><polygon class="cls-1" points="148.16 1961.64 191.07 2005.68 240.75 1961.64 240.75 2423.45 148.16 2423.45 148.16 1961.64 148.16 1961.64"/><polygon class="cls-1" points="148.16 1961.64 240.75 1961.64 191.07 2065.52 148.16 1961.64 148.16 1961.64"/><polygon class="cls-1" points="139.13 1817.12 139.13 1814.86 140.26 1812.6 140.26 1809.21 140.26 1806.95 141.39 1804.7 141.39 1801.31 142.52 1799.05 143.65 1796.79 143.65 1794.53 144.77 1792.28 145.9 1790.02 148.16 1787.76 149.29 1785.5 150.42 1783.24 152.68 1780.98 153.81 1778.73 156.07 1777.6 158.32 1775.34 160.58 1773.08 162.84 1771.95 165.1 1770.82 167.36 1769.69 169.62 1767.43 171.87 1767.43 174.13 1766.31 177.52 1765.18 179.78 1764.05 183.16 1764.05 185.42 1764.05 188.81 1762.92 191.07 1762.92 194.46 1762.92 197.84 1762.92 200.1 1762.92 202.36 1762.92 205.75 1764.05 208.01 1764.05 210.26 1765.18 212.52 1766.31 214.78 1766.31 217.04 1767.43 220.43 1768.56 222.68 1769.69 223.81 1770.82 226.07 1773.08 228.33 1774.21 230.59 1776.47 232.85 1777.6 233.97 1779.85 236.23 1782.11 238.49 1784.37 239.62 1786.63 240.75 1788.89 241.88 1791.15 244.14 1793.4 244.14 1795.66 245.27 1797.92 246.39 1801.31 247.52 1803.57 247.52 1805.82 248.65 1809.21 248.65 1811.47 248.65 1814.86 248.65 1818.24 248.65 1820.5 248.65 1823.89 248.65 1826.15 247.52 1829.54 247.52 1831.79 246.39 1834.05 245.27 1836.31 244.14 1839.7 244.14 1841.96 241.88 1844.21 240.75 1846.47 239.62 1848.73 238.49 1850.99 236.23 1853.25 233.97 1854.38 232.85 1856.63 230.59 1858.89 228.33 1861.15 226.07 1862.28 223.81 1863.41 221.55 1865.67 219.3 1866.8 217.04 1867.93 214.78 1869.05 212.52 1870.18 210.26 1870.18 206.88 1871.31 204.62 1871.31 202.36 1872.44 198.97 1872.44 196.71 1872.44 193.33 1872.44 191.07 1872.44 187.68 1872.44 185.42 1872.44 183.16 1871.31 179.78 1871.31 177.52 1870.18 175.26 1870.18 173 1869.05 170.74 1867.93 168.49 1866.8 165.1 1865.67 162.84 1863.41 161.71 1862.28 159.45 1861.15 157.2 1858.89 154.94 1856.63 153.81 1854.38 151.55 1853.25 150.42 1850.99 148.16 1848.73 147.03 1846.47 145.9 1844.21 144.77 1841.96 143.65 1838.57 142.52 1836.31 141.39 1834.05 141.39 1831.79 140.26 1828.41 140.26 1826.15 140.26 1822.76 139.13 1820.5 139.13 1817.12 139.13 1817.12"/><polygon class="cls-1" points="370.6 2423.45 370.6 1961.64 462.05 1961.64 462.05 2024.87 465.44 2020.36 468.83 2015.84 472.22 2011.32 476.73 2007.94 480.12 2003.42 483.51 2000.03 486.9 1996.64 491.41 1993.26 494.8 1989.87 499.32 1986.48 503.83 1983.09 507.22 1980.84 511.74 1977.45 516.25 1975.19 519.64 1972.93 524.16 1970.67 528.67 1968.42 533.19 1966.16 537.71 1963.9 543.35 1962.77 547.87 1960.51 552.38 1959.38 556.9 1958.25 562.55 1957.13 567.06 1956 572.71 1954.87 578.35 1953.74 582.87 1953.74 588.52 1952.61 594.16 1952.61 599.81 1951.48 605.45 1951.48 608.84 1951.48 614.48 1952.61 617.87 1952.61 622.39 1952.61 626.91 1953.74 631.42 1953.74 634.81 1954.87 639.33 1954.87 643.84 1956 647.23 1957.13 651.75 1958.25 655.13 1959.38 658.52 1960.51 663.04 1961.64 666.42 1962.77 669.81 1965.03 673.2 1966.16 676.59 1968.42 679.97 1969.55 683.36 1971.8 686.75 1974.06 690.14 1976.32 693.52 1978.58 696.91 1980.84 700.3 1983.09 702.56 1985.35 705.94 1987.61 708.2 1991 711.59 1993.26 713.85 1996.64 717.23 1998.9 719.49 2002.29 721.75 2005.68 725.14 2009.06 727.4 2012.45 729.65 2015.84 731.91 2019.23 734.17 2022.61 736.43 2026 737.56 2030.52 739.82 2033.9 742.07 2037.29 743.2 2041.81 745.46 2045.2 746.59 2049.71 748.85 2054.23 749.98 2057.62 751.11 2062.13 752.24 2066.65 753.37 2071.17 754.49 2075.68 755.62 2080.2 756.75 2084.71 757.88 2089.23 757.88 2093.75 759.01 2098.26 759.01 2103.91 760.14 2108.43 760.14 2114.07 761.27 2118.59 761.27 2128.75 761.27 2140.04 761.27 2423.45 669.81 2423.45 669.81 2138.91 669.81 2132.14 669.81 2125.36 668.68 2119.72 667.55 2114.07 667.55 2108.43 666.42 2102.78 665.29 2097.14 664.17 2091.49 661.91 2086.97 660.78 2081.33 658.52 2076.81 656.26 2072.29 654 2067.78 651.75 2063.26 649.49 2059.87 646.1 2055.36 643.84 2051.97 640.45 2048.58 637.07 2045.2 633.68 2042.94 630.29 2039.55 625.78 2037.29 622.39 2035.03 617.87 2032.78 613.36 2031.65 608.84 2029.39 604.32 2028.26 599.81 2027.13 595.29 2026 589.64 2026 585.13 2026 579.48 2024.87 576.1 2026 572.71 2026 568.19 2026 564.8 2026 561.42 2027.13 556.9 2028.26 553.51 2028.26 550.13 2029.39 545.61 2030.52 542.22 2031.65 538.83 2032.78 535.45 2035.03 530.93 2036.16 527.54 2038.42 524.16 2040.68 520.77 2041.81 516.25 2044.07 512.86 2046.33 509.48 2048.58 506.09 2050.84 501.57 2054.23 498.19 2056.49 494.8 2059.87 491.41 2063.26 488.02 2066.65 483.51 2068.91 480.12 2073.42 476.73 2076.81 473.35 2080.2 469.96 2083.59 465.44 2088.1 462.05 2092.62 462.05 2423.45 370.6 2423.45 370.6 2423.45"/><polygon class="cls-1" points="1083.07 2383.93 1106.78 2348.93 1112.42 2348.93 1116.94 2348.93 1121.46 2348.93 1125.97 2348.93 1130.49 2347.8 1135.01 2347.8 1138.39 2346.67 1142.91 2346.67 1147.43 2345.54 1151.94 2344.41 1155.33 2344.41 1159.85 2343.28 1163.23 2342.15 1167.75 2341.02 1171.14 2339.89 1174.52 2337.64 1177.91 2336.51 1182.43 2335.38 1185.82 2333.12 1189.2 2331.99 1192.59 2329.73 1195.98 2328.6 1199.36 2326.34 1201.62 2324.09 1205.01 2321.83 1208.4 2319.57 1210.66 2317.31 1214.04 2315.05 1216.3 2312.8 1219.69 2310.54 1221.95 2308.28 1225.33 2304.89 1227.59 2302.63 1229.85 2299.25 1232.11 2296.99 1234.37 2293.6 1236.63 2290.21 1238.88 2287.95 1241.14 2284.57 1243.4 2281.18 1244.53 2277.79 1246.79 2274.41 1247.92 2271.02 1250.17 2267.63 1251.3 2264.24 1253.56 2260.86 1254.69 2257.47 1255.82 2254.08 1256.95 2249.56 1258.08 2246.18 1259.21 2242.79 1260.34 2238.27 1261.47 2234.89 1262.59 2231.5 1262.59 2226.98 1263.72 2222.47 1264.85 2214.56 1265.98 2206.66 1265.98 2197.63 1265.98 2188.59 1265.98 2184.08 1265.98 2180.69 1265.98 2176.17 1265.98 2172.79 1264.85 2168.27 1264.85 2164.88 1263.72 2160.37 1263.72 2156.98 1262.59 2152.46 1261.47 2149.07 1260.34 2145.69 1260.34 2141.17 1259.21 2137.78 1258.08 2134.4 1255.82 2131.01 1254.69 2127.62 1253.56 2124.23 1251.3 2120.85 1250.17 2117.46 1247.92 2114.07 1246.79 2110.68 1244.53 2107.3 1242.27 2105.04 1240.01 2101.65 1237.75 2098.26 1235.5 2096.01 1233.24 2092.62 1230.98 2089.23 1228.72 2086.97 1226.46 2083.59 1223.08 2081.33 1220.82 2077.94 1217.43 2075.68 1214.04 2073.42 1211.78 2071.17 1208.4 2068.91 1206.14 2066.65 1202.75 2064.39 1199.36 2062.13 1195.98 2059.87 1192.59 2057.62 1190.33 2055.36 1186.94 2054.23 1183.56 2051.97 1180.17 2050.84 1176.78 2049.71 1173.39 2047.45 1168.88 2046.33 1165.49 2045.2 1162.1 2044.07 1158.72 2042.94 1155.33 2041.81 1150.81 2040.68 1147.43 2039.55 1144.04 2038.42 1139.52 2038.42 1136.13 2037.29 1131.62 2037.29 1128.23 2036.16 1123.71 2036.16 1119.2 2036.16 1115.81 2036.16 1111.29 2035.03 1106.78 2035.03 1084.2 1987.61 1109.04 1951.48 1115.81 1951.48 1122.58 1952.61 1129.36 1952.61 1135.01 1952.61 1141.78 1953.74 1148.55 1954.87 1154.2 1954.87 1160.97 1956 1166.62 1957.13 1173.39 1958.25 1179.04 1959.38 1184.69 1961.64 1190.33 1962.77 1195.98 1965.03 1201.62 1966.16 1207.27 1968.42 1212.91 1970.67 1218.56 1972.93 1224.2 1975.19 1229.85 1978.58 1234.37 1980.84 1240.01 1983.09 1245.66 1986.48 1250.17 1989.87 1254.69 1993.26 1260.34 1996.64 1264.85 2000.03 1269.37 2003.42 1275.01 2006.81 1279.53 2011.32 1284.05 2014.71 1288.56 2019.23 1293.08 2022.61 1296.47 2027.13 1300.98 2031.65 1305.5 2036.16 1308.89 2040.68 1312.28 2045.2 1315.66 2049.71 1319.05 2054.23 1322.44 2058.75 1325.82 2064.39 1329.21 2068.91 1331.47 2074.55 1334.86 2079.07 1337.12 2083.59 1339.37 2089.23 1341.63 2094.88 1343.89 2100.52 1346.15 2105.04 1348.41 2110.68 1349.54 2116.33 1351.79 2121.98 1352.92 2127.62 1354.05 2133.27 1355.18 2138.91 1356.31 2145.69 1357.44 2151.33 1358.57 2156.98 1358.57 2163.75 1359.7 2169.4 1359.7 2176.17 1359.7 2181.82 1359.7 2188.59 1359.7 2195.37 1359.7 2202.14 1359.7 2208.92 1358.57 2215.69 1358.57 2222.47 1357.44 2229.24 1356.31 2236.02 1355.18 2241.66 1354.05 2248.44 1352.92 2254.08 1351.79 2259.73 1349.54 2266.5 1348.41 2272.15 1346.15 2277.79 1343.89 2283.44 1341.63 2289.08 1339.37 2294.73 1337.12 2300.38 1334.86 2306.02 1332.6 2310.54 1329.21 2316.18 1325.82 2320.7 1323.57 2326.34 1320.18 2330.86 1316.79 2335.38 1312.28 2339.89 1308.89 2344.41 1305.5 2348.93 1300.98 2353.44 1297.6 2357.96 1293.08 2362.48 1288.56 2366.99 1284.05 2370.38 1279.53 2374.9 1275.01 2378.28 1270.5 2381.67 1265.98 2386.19 1260.34 2389.57 1255.82 2392.96 1251.3 2395.22 1245.66 2398.61 1241.14 2402 1235.5 2404.25 1229.85 2406.51 1225.33 2408.77 1219.69 2412.16 1214.04 2414.42 1208.4 2416.67 1202.75 2417.8 1197.11 2420.06 1191.46 2421.19 1185.82 2423.45 1179.04 2424.58 1173.39 2425.71 1167.75 2426.84 1160.97 2427.96 1155.33 2429.09 1148.55 2430.22 1141.78 2431.35 1136.13 2431.35 1129.36 2432.48 1122.58 2432.48 1115.81 2432.48 1109.04 2432.48 1083.07 2383.93 1083.07 2383.93"/><polygon class="cls-1" points="1132.75 2383.93 1109.04 2432.48 1102.26 2432.48 1095.49 2432.48 1088.71 2432.48 1083.07 2431.35 1076.29 2430.22 1069.52 2430.22 1063.87 2429.09 1057.1 2427.96 1051.45 2426.84 1045.81 2425.71 1039.03 2424.58 1033.39 2423.45 1027.74 2421.19 1022.09 2420.06 1016.45 2417.8 1010.8 2415.54 1005.16 2413.29 999.51 2411.03 993.87 2408.77 989.35 2405.38 983.7 2403.12 979.19 2399.74 973.54 2397.48 969.03 2394.09 963.38 2390.7 958.86 2387.32 954.35 2383.93 949.83 2380.54 945.31 2376.03 939.67 2372.64 936.28 2368.12 931.77 2364.73 927.25 2360.22 922.73 2355.7 919.34 2351.18 914.83 2346.67 911.44 2342.15 908.05 2337.64 904.67 2331.99 901.28 2327.47 897.89 2322.96 894.5 2317.31 892.25 2312.8 888.86 2307.15 886.6 2302.63 884.34 2296.99 882.08 2291.34 879.83 2285.7 877.57 2280.05 875.31 2274.41 873.05 2268.76 871.92 2263.11 870.79 2257.47 868.53 2251.82 867.41 2246.18 866.28 2239.4 865.15 2233.76 865.15 2226.98 864.02 2221.34 862.89 2214.56 862.89 2208.92 862.89 2202.14 861.76 2195.37 861.76 2188.59 861.76 2182.95 862.89 2176.17 862.89 2170.53 862.89 2164.88 864.02 2158.11 865.15 2152.46 865.15 2146.82 866.28 2141.17 867.41 2135.52 868.53 2129.88 870.79 2124.23 871.92 2118.59 874.18 2112.94 875.31 2107.3 877.57 2101.65 879.83 2097.14 882.08 2091.49 884.34 2086.97 886.6 2081.33 889.99 2076.81 892.25 2071.17 895.63 2066.65 897.89 2062.13 901.28 2056.49 904.67 2051.97 908.05 2047.45 912.57 2042.94 915.96 2038.42 919.34 2033.9 923.86 2029.39 928.38 2024.87 932.89 2020.36 936.28 2016.97 940.8 2012.45 945.31 2007.94 950.96 2004.55 955.48 2001.16 959.99 1997.77 964.51 1994.39 970.15 1991 974.67 1987.61 980.32 1984.22 984.83 1981.97 990.48 1978.58 995 1976.32 1000.64 1974.06 1006.29 1971.8 1011.93 1969.55 1017.58 1967.29 1023.22 1965.03 1028.87 1963.9 1034.51 1961.64 1040.16 1960.51 1045.81 1959.38 1052.58 1957.13 1058.23 1956 1063.87 1954.87 1070.65 1954.87 1076.29 1953.74 1083.07 1952.61 1089.84 1952.61 1095.49 1952.61 1102.26 1951.48 1109.04 1951.48 1133.88 1994.39 1106.78 2035.03 1098.87 2036.16 1090.97 2036.16 1086.45 2036.16 1083.07 2037.29 1078.55 2037.29 1075.16 2038.42 1070.65 2038.42 1067.26 2039.55 1063.87 2040.68 1060.48 2041.81 1055.97 2042.94 1052.58 2044.07 1049.19 2045.2 1045.81 2046.33 1042.42 2047.45 1039.03 2049.71 1035.64 2050.84 1032.26 2051.97 1030 2054.23 1026.61 2056.49 1023.22 2057.62 1019.84 2059.87 1017.58 2062.13 1014.19 2064.39 1010.8 2066.65 1008.54 2068.91 1005.16 2071.17 1002.9 2073.42 1000.64 2076.81 997.25 2079.07 995 2081.33 992.74 2084.71 990.48 2086.97 988.22 2090.36 985.96 2092.62 983.7 2096.01 981.45 2099.39 979.19 2101.65 976.93 2105.04 975.8 2108.43 973.54 2111.81 972.41 2114.07 970.15 2117.46 969.03 2120.85 967.9 2124.23 965.64 2127.62 964.51 2131.01 963.38 2134.4 962.25 2137.78 961.12 2141.17 959.99 2145.69 959.99 2149.07 958.86 2152.46 957.73 2155.85 957.73 2160.37 956.61 2163.75 956.61 2167.14 956.61 2171.66 956.61 2175.04 955.48 2179.56 955.48 2182.95 955.48 2187.46 955.48 2191.98 955.48 2196.5 956.61 2201.01 956.61 2205.53 956.61 2210.05 956.61 2213.43 957.73 2217.95 957.73 2222.47 958.86 2226.98 959.99 2230.37 959.99 2234.89 961.12 2238.27 962.25 2242.79 963.38 2246.18 964.51 2250.69 965.64 2254.08 967.9 2257.47 969.03 2260.86 970.15 2264.24 972.41 2268.76 973.54 2272.15 975.8 2275.53 976.93 2278.92 979.19 2281.18 981.45 2284.57 983.7 2287.95 985.96 2291.34 988.22 2293.6 990.48 2296.99 992.74 2300.38 995 2302.63 997.25 2306.02 1000.64 2308.28 1002.9 2310.54 1005.16 2312.8 1008.54 2316.18 1010.8 2318.44 1014.19 2320.7 1017.58 2322.96 1019.84 2324.09 1023.22 2326.34 1026.61 2328.6 1030 2330.86 1032.26 2331.99 1035.64 2334.25 1039.03 2335.38 1042.42 2336.51 1045.81 2338.76 1049.19 2339.89 1052.58 2341.02 1055.97 2342.15 1060.48 2343.28 1063.87 2344.41 1067.26 2344.41 1070.65 2345.54 1075.16 2346.67 1078.55 2346.67 1083.07 2347.8 1086.45 2347.8 1090.97 2348.93 1094.36 2348.93 1098.87 2348.93 1103.39 2348.93 1106.78 2348.93 1132.75 2383.93 1132.75 2383.93"/><polygon class="cls-1" points="1621.65 2245.05 1742.47 1961.64 1839.57 1961.64 1637.46 2432.48 1605.84 2432.48 1395.83 1961.64 1496.32 1961.64 1621.65 2245.05 1621.65 2245.05"/><polygon class="cls-1" points="1954.74 2173.91 1982.97 2145.69 2214.44 2145.69 2214.44 2140.04 2214.44 2134.4 2213.31 2128.75 2212.18 2124.23 2211.05 2118.59 2209.92 2112.94 2208.79 2108.43 2207.66 2103.91 2205.4 2098.26 2203.14 2093.75 2200.89 2089.23 2198.63 2084.71 2195.24 2080.2 2191.85 2075.68 2189.59 2072.29 2185.08 2067.78 2181.69 2064.39 2178.3 2059.87 2173.79 2056.49 2170.4 2054.23 2165.88 2050.84 2161.37 2048.58 2155.72 2046.33 2151.2 2044.07 2146.69 2041.81 2141.04 2040.68 2135.4 2038.42 2130.88 2037.29 2125.24 2036.16 2118.46 2036.16 2112.82 2036.16 2107.17 2035.03 2082.33 1985.35 2106.04 1951.48 2111.69 1951.48 2117.33 1952.61 2122.98 1952.61 2129.75 1952.61 2135.4 1953.74 2141.04 1954.87 2145.56 1954.87 2151.2 1956 2156.85 1957.13 2161.37 1958.25 2167.01 1959.38 2171.53 1961.64 2177.17 1962.77 2181.69 1965.03 2186.21 1966.16 2191.85 1968.42 2195.24 1970.67 2200.89 1972.93 2204.27 1975.19 2208.79 1978.58 2213.31 1980.84 2217.82 1983.09 2221.21 1986.48 2225.73 1989.87 2229.11 1993.26 2232.5 1996.64 2237.02 2000.03 2240.4 2003.42 2243.79 2006.81 2247.18 2011.32 2250.57 2014.71 2253.95 2019.23 2257.34 2022.61 2259.6 2027.13 2262.99 2031.65 2265.25 2036.16 2268.63 2040.68 2270.89 2046.33 2273.15 2050.84 2276.54 2055.36 2278.79 2061 2281.05 2065.52 2282.18 2071.17 2284.44 2076.81 2286.7 2082.46 2288.96 2086.97 2290.09 2093.75 2292.34 2099.39 2293.47 2105.04 2294.6 2110.68 2296.86 2117.46 2297.99 2123.1 2299.12 2129.88 2300.25 2136.65 2300.25 2142.3 2301.38 2149.07 2302.51 2155.85 2302.51 2162.62 2303.63 2170.53 2303.63 2177.3 2304.76 2184.08 2304.76 2191.98 2304.76 2198.76 2304.76 2206.66 1981.84 2206.66 1954.74 2173.91 1954.74 2173.91"/><polygon class="cls-1" points="1981.84 2177.3 1981.84 2206.66 1982.97 2215.69 1985.23 2223.6 1987.48 2231.5 1989.74 2239.4 1992 2247.31 1994.26 2255.21 1997.65 2261.99 2001.03 2268.76 2004.42 2275.53 2007.81 2281.18 2011.2 2287.95 2014.58 2293.6 2019.1 2299.25 2023.62 2303.76 2028.13 2309.41 2032.65 2312.8 2037.16 2317.31 2042.81 2321.83 2048.46 2325.22 2054.1 2328.6 2058.62 2331.99 2065.39 2335.38 2071.04 2337.64 2077.81 2339.89 2084.59 2342.15 2090.23 2344.41 2097.01 2345.54 2104.91 2346.67 2111.69 2347.8 2119.59 2348.93 2127.49 2348.93 2135.4 2348.93 2139.91 2348.93 2144.43 2348.93 2148.95 2348.93 2154.59 2347.8 2159.11 2347.8 2163.63 2346.67 2169.27 2345.54 2173.79 2345.54 2179.43 2344.41 2183.95 2343.28 2188.47 2342.15 2194.11 2339.89 2198.63 2338.76 2204.27 2337.64 2208.79 2335.38 2213.31 2333.12 2218.95 2331.99 2223.47 2329.73 2229.11 2327.47 2233.63 2325.22 2239.28 2321.83 2243.79 2319.57 2249.44 2317.31 2253.95 2313.92 2259.6 2311.67 2265.25 2308.28 2269.76 2304.89 2275.41 2301.5 2281.05 2298.12 2285.57 2294.73 2291.21 2290.21 2295.73 2286.83 2295.73 2377.15 2286.7 2382.8 2277.67 2388.45 2268.63 2392.96 2258.47 2398.61 2249.44 2403.12 2239.28 2407.64 2229.11 2412.16 2217.82 2416.67 2213.31 2417.8 2207.66 2420.06 2202.01 2422.32 2196.37 2423.45 2190.72 2424.58 2185.08 2425.71 2178.3 2426.84 2172.66 2427.96 2165.88 2429.09 2159.11 2430.22 2152.33 2431.35 2145.56 2431.35 2138.78 2432.48 2132.01 2432.48 2125.24 2432.48 2117.33 2432.48 2110.56 2432.48 2104.91 2432.48 2098.14 2431.35 2092.49 2431.35 2086.85 2430.22 2080.07 2430.22 2074.43 2429.09 2068.78 2427.96 2063.13 2426.84 2057.49 2425.71 2051.84 2424.58 2046.2 2422.32 2040.55 2421.19 2036.04 2418.93 2030.39 2416.67 2024.74 2414.42 2020.23 2412.16 2014.58 2409.9 2010.07 2407.64 2005.55 2405.38 2001.03 2402 1995.39 2399.74 1990.87 2396.35 1986.35 2392.96 1981.84 2389.57 1977.32 2386.19 1973.93 2382.8 1969.42 2378.28 1964.9 2374.9 1961.51 2370.38 1957 2366.99 1953.61 2362.48 1949.09 2357.96 1945.71 2353.44 1942.32 2348.93 1938.93 2344.41 1935.54 2338.76 1932.16 2334.25 1928.77 2329.73 1926.51 2325.22 1923.12 2319.57 1920.87 2315.05 1917.48 2309.41 1915.22 2303.76 1912.96 2299.25 1910.7 2293.6 1908.45 2287.95 1906.19 2283.44 1905.06 2277.79 1902.8 2272.15 1901.67 2266.5 1899.41 2260.86 1898.28 2255.21 1897.15 2248.44 1896.03 2242.79 1894.9 2237.14 1893.77 2230.37 1892.64 2224.72 1892.64 2219.08 1891.51 2212.3 1891.51 2205.53 1891.51 2199.88 1891.51 2193.11 1890.38 2186.33 1891.51 2180.69 1891.51 2173.91 1891.51 2168.27 1891.51 2161.49 1892.64 2155.85 1892.64 2149.07 1893.77 2143.43 1894.9 2137.78 1896.03 2132.14 1897.15 2126.49 1898.28 2120.85 1899.41 2115.2 1900.54 2109.56 1902.8 2103.91 1903.93 2098.26 1906.19 2093.75 1907.32 2088.1 1909.58 2082.46 1911.83 2077.94 1914.09 2073.42 1916.35 2067.78 1918.61 2063.26 1920.87 2058.75 1924.25 2053.1 1926.51 2048.58 1929.9 2044.07 1933.29 2039.55 1936.67 2035.03 1938.93 2030.52 1942.32 2027.13 1946.84 2022.61 1950.22 2018.1 1953.61 2014.71 1958.13 2010.19 1961.51 2006.81 1966.03 2002.29 1969.42 1998.9 1973.93 1995.52 1977.32 1992.13 1981.84 1989.87 1986.35 1986.48 1990.87 1983.09 1995.39 1980.84 1999.9 1977.45 2004.42 1975.19 2008.94 1972.93 2013.45 1970.67 2019.1 1968.42 2023.62 1966.16 2028.13 1965.03 2033.78 1962.77 2038.29 1961.64 2043.94 1959.38 2049.58 1958.25 2054.1 1957.13 2059.75 1956 2065.39 1954.87 2071.04 1954.87 2076.68 1953.74 2082.33 1952.61 2087.97 1952.61 2093.62 1952.61 2099.27 1951.48 2106.04 1951.48 2130.88 1985.35 2107.17 2035.03 2100.39 2035.03 2093.62 2036.16 2087.97 2036.16 2081.2 2037.29 2075.55 2038.42 2069.91 2039.55 2064.26 2040.68 2059.75 2041.81 2054.1 2044.07 2049.58 2046.33 2045.07 2048.58 2039.42 2050.84 2034.91 2054.23 2031.52 2056.49 2027 2059.87 2022.49 2063.26 2019.1 2066.65 2015.71 2070.04 2012.32 2074.55 2008.94 2079.07 2005.55 2083.59 2003.29 2088.1 1999.9 2092.62 1997.65 2097.14 1995.39 2102.78 1993.13 2108.43 1990.87 2114.07 1988.61 2119.72 1987.48 2126.49 1985.23 2132.14 1984.1 2138.91 1982.97 2145.69 1981.84 2177.3 1981.84 2177.3"/><polygon class="cls-1" points="2344.28 2423.45 2538.49 2188.59 2344.28 1961.64 2461.71 1961.64 2597.2 2118.59 2728.18 1961.64 2845.61 1961.64 2655.92 2188.59 2859.16 2423.45 2742.86 2423.45 2596.07 2257.47 2461.71 2423.45 2344.28 2423.45 2344.28 2423.45"/></svg>